<mxfile host="app.diagrams.net" modified="2024-02-10T18:34:37.091Z" agent="Mozilla/5.0 (Windows NT 10.0; Win64; x64) AppleWebKit/537.36 (KHTML, like Gecko) Chrome/121.0.0.0 Safari/537.36" etag="vh4V-kA5Sz9G0weY0h1K" version="23.0.1" type="github">
  <diagram name="Page-1" id="2euWP3GzKTTJIBRFbvRD">
    <mxGraphModel dx="1221" dy="759" grid="1" gridSize="10" guides="1" tooltips="1" connect="1" arrows="1" fold="1" page="1" pageScale="1" pageWidth="850" pageHeight="1100" math="0" shadow="0">
      <root>
        <mxCell id="0" />
        <mxCell id="1" parent="0" />
        <mxCell id="vFhZLUliiJk6AFn3ogl6-7" value="User Side (Website)" style="rounded=0;whiteSpace=wrap;html=1;" vertex="1" parent="1">
          <mxGeometry x="50" y="20" width="120" height="60" as="geometry" />
        </mxCell>
        <mxCell id="vFhZLUliiJk6AFn3ogl6-8" value="" style="endArrow=none;html=1;rounded=0;" edge="1" parent="1">
          <mxGeometry width="50" height="50" relative="1" as="geometry">
            <mxPoint x="220" y="750" as="sourcePoint" />
            <mxPoint x="220" y="10" as="targetPoint" />
          </mxGeometry>
        </mxCell>
        <mxCell id="vFhZLUliiJk6AFn3ogl6-10" value="Server Side" style="rounded=0;whiteSpace=wrap;html=1;" vertex="1" parent="1">
          <mxGeometry x="360" y="20" width="120" height="60" as="geometry" />
        </mxCell>
        <mxCell id="vFhZLUliiJk6AFn3ogl6-11" value="Data Base" style="rounded=0;whiteSpace=wrap;html=1;" vertex="1" parent="1">
          <mxGeometry x="660" y="20" width="120" height="60" as="geometry" />
        </mxCell>
        <mxCell id="vFhZLUliiJk6AFn3ogl6-12" value="" style="endArrow=none;html=1;rounded=0;" edge="1" parent="1">
          <mxGeometry width="50" height="50" relative="1" as="geometry">
            <mxPoint x="570" y="754" as="sourcePoint" />
            <mxPoint x="570" y="20" as="targetPoint" />
          </mxGeometry>
        </mxCell>
        <mxCell id="vFhZLUliiJk6AFn3ogl6-14" value="" style="endArrow=none;dashed=1;html=1;dashPattern=1 3;strokeWidth=2;rounded=0;" edge="1" parent="1">
          <mxGeometry width="50" height="50" relative="1" as="geometry">
            <mxPoint x="10" y="100" as="sourcePoint" />
            <mxPoint x="840" y="100" as="targetPoint" />
          </mxGeometry>
        </mxCell>
        <mxCell id="vFhZLUliiJk6AFn3ogl6-17" style="edgeStyle=orthogonalEdgeStyle;rounded=0;orthogonalLoop=1;jettySize=auto;html=1;" edge="1" parent="1" source="vFhZLUliiJk6AFn3ogl6-16" target="vFhZLUliiJk6AFn3ogl6-18">
          <mxGeometry relative="1" as="geometry">
            <mxPoint x="480" y="270" as="targetPoint" />
          </mxGeometry>
        </mxCell>
        <mxCell id="vFhZLUliiJk6AFn3ogl6-16" value="Data about specific location is sent to the server" style="rounded=0;whiteSpace=wrap;html=1;" vertex="1" parent="1">
          <mxGeometry x="630" y="240" width="190" height="60" as="geometry" />
        </mxCell>
        <mxCell id="vFhZLUliiJk6AFn3ogl6-19" style="edgeStyle=orthogonalEdgeStyle;rounded=0;orthogonalLoop=1;jettySize=auto;html=1;" edge="1" parent="1" source="vFhZLUliiJk6AFn3ogl6-18" target="vFhZLUliiJk6AFn3ogl6-20">
          <mxGeometry relative="1" as="geometry">
            <mxPoint x="170" y="270" as="targetPoint" />
          </mxGeometry>
        </mxCell>
        <mxCell id="vFhZLUliiJk6AFn3ogl6-18" value="Data is analyzed generate information tables/graphs" style="rounded=0;whiteSpace=wrap;html=1;" vertex="1" parent="1">
          <mxGeometry x="280" y="240" width="270" height="60" as="geometry" />
        </mxCell>
        <mxCell id="vFhZLUliiJk6AFn3ogl6-20" value="graphs and tables are displayed for the particular location" style="rounded=0;whiteSpace=wrap;html=1;" vertex="1" parent="1">
          <mxGeometry x="60" y="240" width="120" height="60" as="geometry" />
        </mxCell>
        <mxCell id="vFhZLUliiJk6AFn3ogl6-22" style="edgeStyle=orthogonalEdgeStyle;rounded=0;orthogonalLoop=1;jettySize=auto;html=1;" edge="1" parent="1" source="vFhZLUliiJk6AFn3ogl6-21" target="vFhZLUliiJk6AFn3ogl6-23">
          <mxGeometry relative="1" as="geometry">
            <mxPoint x="290" y="165" as="targetPoint" />
          </mxGeometry>
        </mxCell>
        <mxCell id="vFhZLUliiJk6AFn3ogl6-21" value="Home page displays the ordered sustainability scores of each location &amp;amp; info about how we score sustainability" style="rounded=0;whiteSpace=wrap;html=1;" vertex="1" parent="1">
          <mxGeometry x="10" y="120" width="190" height="90" as="geometry" />
        </mxCell>
        <mxCell id="vFhZLUliiJk6AFn3ogl6-24" style="edgeStyle=orthogonalEdgeStyle;rounded=0;orthogonalLoop=1;jettySize=auto;html=1;entryX=0.5;entryY=0;entryDx=0;entryDy=0;" edge="1" parent="1" source="vFhZLUliiJk6AFn3ogl6-23" target="vFhZLUliiJk6AFn3ogl6-16">
          <mxGeometry relative="1" as="geometry">
            <mxPoint x="650" y="165" as="targetPoint" />
          </mxGeometry>
        </mxCell>
        <mxCell id="vFhZLUliiJk6AFn3ogl6-23" value="Processes request for expanded into about a single location, and requests needed data from database" style="rounded=0;whiteSpace=wrap;html=1;" vertex="1" parent="1">
          <mxGeometry x="320" y="130" width="160" height="70" as="geometry" />
        </mxCell>
      </root>
    </mxGraphModel>
  </diagram>
</mxfile>
